<svg xmlns="http://www.w3.org/2000/svg" viewBox="0 0 1920 487.31"><path fill="#F6D08A" d="M1920 269.02V76.989s-67.68-11.39-72.016-9.207c-4.339 2.182-62.908-10.903-66.163-10.903-3.254 0-37.959 10.903-37.959 10.903l-65.22-10.903-86.324-9.97-35.347 10.329-135.539-53.826-77.007 16.902-90.028-14.791L1174.976 0l-46.874 22.163-23.383 23.229-98.411-3.781-58.687 24.925-66.04-10.75s-53.154 27.258-56.408 27.258c-3.254 0-68.33 6.544-68.33 6.544l-80.259-21.806s-54.236 6.542-70.504 8.54c-16.271 1.995-47.727-7.451-53.066-8.54-5.337-1.091-65.156-7.635-65.156-7.635s-58.721-4.847-62.906-8.118c-4.182-3.271-47.786-12.374-47.786-12.374l-49.814-7.786-58.561 3.2-32.32 25.28-43.757-7.067h-37.966l-55.77 30.604-46.06-16.104L0 76.989V269.02h1920z"/></svg>