<svg xmlns="http://www.w3.org/2000/svg" viewBox="0 0 1924 1080"><path fill="none" stroke="#FFF" stroke-linecap="round" stroke-linejoin="round" stroke-miterlimit="10" stroke-width="2.96" d="M1642.784 34.153v-.789M1601.538 120.118c-.249.262-.5.525-.749.789M1501.051 62.545h-.75M1530.297 142.989v-.789M1582.173 226.612c-.064.385.703.357.612-.023M1482.303 199.773v.789M1532.547 329.902l.75-.789M1749.271 216.335v-.789M1888.754 235.263l.75-.789M1847.509 172.17v.789M1881.255 70.432v-.789M1903.003 47.561c.25-.526.499-1.052.75-1.577M1922.5 77.53v-.789M1815.263 62.545h-.749M1835.861 262.742v-1.397M1785.377 396.871v-1.397M1740.207 642.774h-1.329M1631.268 679.101h1.329M1590.084 627.405h2.657M1849.146 627.405v-1.397M1857.117 646.966v1.397M1834.532 792.272l-1.329-1.397M1903.615 811.833v1.397M1251.311 632.994h-1.329M1388.149 405.254v-1.397M1475.831 437.389h-1.329M1304.452 93.683l-1.329 1.398M1251.311 55.96v-1.397M1204.813 215.238h-1.329M1174.257 286.494h1.328M1005.535 123.024h3.985M1117.13 114.641h-1.329M796.956 211.046l1.329-1.397M719.902 121.627l1.329 1.397M547.194 364.735v-1.397M492.725 378.708h-1.329M568.451 431.801h1.328M506.01 489.084v-1.397M563.137 688.881c-1.097 0-1.097 0 0 0M613.621 666.526c-1.097 0-1.097 0 0 0M670.747 577.106c0-1.153 0-1.153 0 0M561.808 876.103h1.329M479.44 723.81h1.329M350.573 691.675v-1.397M98.154 877.5h1.329M48.998 772.711v-1.397M2.5 806.244v1.397M79.554 659.54l-1.328-1.397M48.998 592.476h-1.329M242.962 406.651h2.657M363.858 399.665l1.329-1.397M393.086 465.332l1.329 1.398M144.652 360.544h1.329M191.15 331.204h1.329M72.912 280.905h1.329M451.541 258.55c0-1.153 0-1.153 0 0M367.844 92.286h1.329M476.783 43.385v1.397M310.717 26.619l1.329 1.397M207.093 14.044v-1.397M34.385 78.315h-1.329M79.554 11.25l1.329-1.397"/></svg>