<svg xmlns="http://www.w3.org/2000/svg" viewBox="0 0 1918 654"><defs><linearGradient id="a" x1="-2.56" x2="-2.56" y1="858.503" y2="-51.734" gradientUnits="userSpaceOnUse"><stop offset="0" stop-color="#FAF4A5"/><stop offset="1" stop-color="#F0B373"/></linearGradient><linearGradient id="b" x1="1863.439" x2="1863.439" y1="627.743" y2="524.077" gradientUnits="userSpaceOnUse"><stop offset="0" stop-color="#FAF4A5"/><stop offset="1" stop-color="#F0B373"/></linearGradient><linearGradient id="c" x1="1692.359" x2="1692.359" y1="686.115" y2="428.17" gradientUnits="userSpaceOnUse"><stop offset="0" stop-color="#FAF4A5"/><stop offset="1" stop-color="#F0B373"/></linearGradient><linearGradient id="d" x1="520.449" x2="520.449" y1="466.088" y2="343.377" gradientUnits="userSpaceOnUse"><stop offset="0" stop-color="#FAF4A5"/><stop offset="1" stop-color="#F0B373"/></linearGradient><linearGradient id="e" x1="604.239" x2="604.239" y1="563.707" y2="290.281" gradientUnits="userSpaceOnUse"><stop offset="0" stop-color="#FAF4A5"/><stop offset="1" stop-color="#F0B373"/></linearGradient></defs><g opacity=".5"><path fill="url(#a)" d="M1055.058 573.638c-15.811-4.645-36.557 6.201-62.894 2.403-26.343-3.798-16.905 1.665-81.381-2.804-64.475-4.473-68.305 3.962-94.626-.826-26.32-4.79-32.29.608-61.507-6.33-29.214-6.935-58.819 6.885-110.033-.603-22.484-3.287-46.685-4.934-68.937-1.478-32.96 5.12-55.448-1.693-76.096-2.701-36.8-1.793-41.485 13.325-88.285 5.34-46.804-7.986-47.975 7.423-98.339 1.521-36.508-4.276-45.723 6.725-97.6-.32-13.501-1.833-54.911-6.894-72.32-1.92-22.4 6.4-44.797.444-51.974 4.271-12.802 6.828-23.469 2.988-39.254 3.84-1.372.076-2.409.186-3.182.326 3.42.881 7.775 1.806 14.512 2.675 26.453 3.413 17.498-.338 32.858.088 15.36.428 11.942 2.472 30.715 2.899 18.775.428 11.845-5.033 32.325-4.179 20.48.854 15.89 4.179 39.782 4.179 23.893 0 24.538-4.499 47.258.621 17.501 3.944 18.876 2.365 29.542 1.512 9.387-.75 38.905 1.57 37.978 1.688-6.822 1.363-35.132 2.063-42.244 3.432-11.094 2.133-20.48 0-47.786-1.28s-36.695 1.28-46.508 3.84c-6.164 1.607-20.582 6.168-53.76 2.987-27.302-2.617-23.892-1.28-39.68 2.56-11.58 2.816-19.024-1.71-25.201-4.322a92.18 92.18 0 0 0-4.584 1.322c-15.733 4.989-40.352-.721-53.837 1.499v10.368c15.693 1.291 17.781-.334 30.715-.334 16.215 0 63.575 5.12 63.575 5.12s38.51 7.983 15.47 8.408c-7.894.146-34.857-7.798-60.25-3.918-27.75 4.238-43.345-3.215-46.63-3.442-.71.111-1.705.163-2.88.17v17.297c8.727-.405 10.502-1.518 19.384 6.218 13.228 11.52 40.962 3.84 79.789 9.386 8.479 1.211 84.014 11.413 116.117 8.521 15.134-1.36 28.75-3.965 38.243-4.898 19.079-1.875 26.81 2.907 65.664.325 58.176-3.867 28.907 3.432 65.698-2.486 36.792-5.92 33.669 4.264 66.039-.744 32.375-5.013-4.435 1.899 57.28-2.892 18.684-1.451 31.493 2.738 54.288.027 27.4-3.258 47.477.152 69.015-2.673 30.886-4.045 74.797.742 92.472-2.23 17.666-2.972 54.346-2.615 61.71-4.129 7.365-1.513-60.137-1.128-88.035-.328-5.924.17-38.232 4.568-58.7.551-20.464-4.017-39.709 4.871-76.29-.441-36.581-5.309-61.832 2.477-85.149-1.595-23.321-4.071-73.316 1.6-90.854-2.035-17.539-3.631-35.987 1.887-56.44-2.875-18.314-4.265-11.127 6.86-41.755-3.114-30.624-9.971-34.081 1.761-58.614-4.218-23.384-5.698-105.305-1.858 32.537-13.598 15.058-1.283 38.103 2.368 63.126-1.79 25.024-4.156 27.786 5.142 51.363-.361 23.578-5.504 15.956 1.623 49.123-2.379 33.163-4.005 24.233 2.437 62.473-2.133 38.233-4.572 45.455 1.755 60.171-.734 14.719-2.486 35.134 4.359 52.814.632 17.675-3.725 23.259 10.838 72.771 4.206 35.84-4.8 94.92 2.502 122.56-.64 27.64-3.145-69.147-3.789-66.158-6.616 2.99-2.825-24.902-2.028-40.998-4.313-16.103-2.282-38.176 1.268-74.809-1.402-36.632-2.668-68.946-.785-92.393-2.303-23.451-1.52-45.545 3.085-64.536-1.433-18.988-4.517-71.901.333-42.47-4.181 29.428-4.521 79.285-2.925 92.518-4.328 13.233-1.405 45.418 3.494 68.939 1.293 23.517-2.201 21.967 2.272 71.876.957 49.914-1.316 108.466 6.057 126.115 3.747 17.651-2.312-10.357 4.637 41.108-1.11 51.46-5.747 48.34-.829 68.42-1.852 16.362-.83 31.136 3.552 63.667-.071 60.96-6.782 42.449 5.424 86.583-.689 22.206-3.072 67.869 1.975 104.923-.675-6.382-.175-81.615-3.651-84.527-4.506z" transform="translate(0 -426.001)"/><path fill="url(#b)" d="M1864.398 594.939c-1.18.41-1.051.884.047 1.403 14.375 1.884 14.456 2.975 40.617 6.29 6.125.775 10.961 1.287 14.938 1.614v-10.368c-1.508.247-2.881.59-4.082 1.061-11.947 4.692-41.705-3.415-51.52 0z" transform="translate(0 -426.001)"/><path fill="url(#c)" d="M1920 610.25c-4.95.036-13.153-.696-17.301-.983-7.672-.001-17.354-1.088-26.224-1.088-11.093 0-12.8-.427-28.16.428-15.36.852-21.76-1.708-37.12-1.708-15.36 0-20.48-1.707-46.933-3.84-26.455-2.132-36.692-1.28-56.32 1.28-4.834.63-9.797.663-14.584.365-3.628 5.402 13.507 1.443 32.695 6.447 19.625 5.12 28.585 0 45.653 6.828 17.067 6.826 20.052-2.56 34.56 1.706 14.507 4.266 26.452 0 47.787 5.12 21.332 5.12 18.345-2.134 46.505 1.706 9.249 1.261 15.173 1.233 19.442 1.036V610.25z" transform="translate(0 -426.001)"/><path fill="url(#d)" d="M797.261 427.867c-30.738-6.454-51.991 6.3-83.789 1.436-32.252-4.936-50.477 4.753-68.141.882-18.173-3.98-40.884 1.771-56.027-.882-15.142-2.655-34.206.882-34.206.882-34.206.886-52.109 8.407-6.678 3.542 45.426-4.867 25.742 7.518 59.054 3.093 33.317-4.421 28.77 1.328 43.913-.883 15.145-2.21 27.256 4.866 39.373 1.328 12.114-3.538 39.371 3.096 68.14-.445 28.771-3.536 36.341 3.983 54.513-2.21 18.172-6.193 43.913-2.474 43.913-2.474-17.669-8.191-40.882-.241-60.065-4.269z" transform="translate(0 -426.001)"/><path fill="url(#e)" d="M669.603 498.595c22.281-7.387 52.521 5.372 86.16-1.343 33.646-6.716 36.383 6.044 58.666 2.685 22.279-3.357 58.884 5.372 79.57 0 20.69-5.372 60.478 3.359 77.986-4.701 17.506-8.058 47.744 7.387 84.347-.671 36.604-8.059 44.561 5.372 68.435-.671 23.872-6.044 47.742-4.03 47.742-4.03-9.548-10.073-46.946 3.023-69.228-6.377-22.28-9.403-26.256 7.721-50.132-5.037-23.87-12.76-33.42 9.4-58.885.671-25.46-8.73-38.195 7.576-60.476 4.889-22.277-2.685-30.239 7.868-81.163 5.183-50.932-2.687-28.648 5.372-71.618 1.343-42.969-4.03-41.377 8.729-71.617 0-30.239-8.729-31.828 5.373-58.886 2.016-27.053-3.359-44.991 4.7-44.991 4.7 34.582 0 41.811 8.729 64.09 1.343z" transform="translate(0 -426.001)"/></g></svg>