<svg xmlns="http://www.w3.org/2000/svg" viewBox="0 0 1920 1080"><path fill="none" stroke="#FFF" stroke-linecap="round" stroke-linejoin="round" stroke-miterlimit="10" stroke-width="2.718" opacity=".4" d="M335.761 811.721v.725M373.639 732.776l.688-.724M465.922 785.648h.688M439.064 711.772v.724M391.423 634.977c.059-.354-.645-.327-.563.021M483.139 659.624v-.724M436.997 540.12l-.688.724M237.968 644.415v.724M109.874 627.033l-.689.724M147.751 684.974v-.724M116.761 778.405v.724M96.789 799.409l-.689 1.449M78.883 771.887v.724M177.364 785.648h.689M158.449 601.797v1.282M204.811 478.619v1.283M246.292 252.794h1.22M346.336 219.433h-1.22M384.157 266.908h-2.44M146.248 266.908v1.283M138.928 248.944v-1.283M159.669 115.503l1.22 1.282M96.226 97.539v-1.283M695.27 261.776h1.22M569.606 470.921v1.283M489.082 441.409h1.22M646.468 757.052l1.22-1.283M695.27 791.696v1.283M737.972 645.422h1.22M766.033 579.984h-1.22M920.98 730.107h-3.66M818.496 737.806h1.22M1112.527 649.272l-1.22 1.283M1183.291 731.39a739.04 739.04 0 0 1-1.22-1.283M1341.897 508.131v1.283M1391.919 495.299h1.22M1322.376 446.542h-1.22M1379.719 393.935v1.283M1327.256 210.452c1.007 0 1.007 0 0 0M1280.895 230.981c1.007 0 1.007 0 0 0M1228.432 313.099c0 1.06 0 1.06 0 0M1328.477 38.517h-1.22M1404.12 178.374h-1.22M1522.464 207.885v1.283M1754.274 37.233h-1.22M1799.416 133.466v1.283M1842.118 102.671v-1.283M1771.355 237.396l1.22 1.283M1799.416 298.985h1.22M1621.288 469.638h-2.44M1510.264 476.053l-1.22 1.283M1483.423 415.748l-1.22-1.283M1711.572 511.98h-1.22M1668.87 538.925h-1.22M1777.455 585.117h-1.22M1429.741 605.646c0 1.059 0 1.059 0 0M1506.604 758.335h-1.22M1406.559 803.244v-1.283M1559.066 818.64l-1.22-1.283M1654.23 830.189v1.283M1812.837 771.166h1.22M1771.354 832.755l-1.22 1.283"/></svg>