<svg xmlns="http://www.w3.org/2000/svg" viewBox="0 0 1920 419.923"><defs><linearGradient id="a" x1="1922.56" x2="1922.56" y1="788.166" y2="843.417" gradientUnits="userSpaceOnUse"><stop offset="0" stop-color="#DC6737"/><stop offset="1" stop-color="#DD793E"/></linearGradient><linearGradient id="b" x1="1692.892" x2="1697.798" y1="658.739" y2="712.501" gradientUnits="userSpaceOnUse"><stop offset="0" stop-color="#DD793E"/><stop offset="1" stop-color="#B8402C"/></linearGradient><linearGradient id="c" x1="-2.541" x2="-2.541" y1="845.6" y2="430.009" gradientUnits="userSpaceOnUse"><stop offset="0" stop-color="#DD793E"/><stop offset="1" stop-color="#B8402C"/></linearGradient><linearGradient id="d" x1="693.182" x2="684.222" y1="849.479" y2="646.599" gradientUnits="userSpaceOnUse"><stop offset="0" stop-color="#DD793E"/><stop offset="1" stop-color="#B8402C"/></linearGradient><linearGradient id="e" x1="753.521" x2="744.561" y1="845.813" y2="642.932" gradientUnits="userSpaceOnUse"><stop offset="0" stop-color="#DD793E"/><stop offset="1" stop-color="#B8402C"/></linearGradient><linearGradient id="f" x1="464.955" x2="464.955" y1="921.546" y2="697.699" gradientUnits="userSpaceOnUse"><stop offset="0" stop-color="#DD793E"/><stop offset="1" stop-color="#B8402C"/></linearGradient><linearGradient id="g" x1="210.573" x2="211.853" y1="836.571" y2="654.805" gradientUnits="userSpaceOnUse"><stop offset="0" stop-color="#DD793E"/><stop offset="1" stop-color="#B8402C"/></linearGradient><linearGradient id="h" x1="1401.059" x2="1403.191" y1="758.121" y2="684.095" gradientUnits="userSpaceOnUse"><stop offset="0" stop-color="#DD793E"/><stop offset="1" stop-color="#B8402C"/></linearGradient><linearGradient id="i" x1="845.333" x2="841.067" y1="878.072" y2="666.872" gradientUnits="userSpaceOnUse"><stop offset="0" stop-color="#DD793E"/><stop offset="1" stop-color="#B8402C"/></linearGradient><linearGradient id="j" x1="1704.942" x2="1704.942" y1="825.436" y2="722.55" gradientUnits="userSpaceOnUse"><stop offset="0" stop-color="#DD793E"/><stop offset="1" stop-color="#B8402C"/></linearGradient><linearGradient id="k" x1="1480.729" x2="1483.715" y1="732.044" y2="685.537" gradientUnits="userSpaceOnUse"><stop offset="0" stop-color="#DD793E"/><stop offset="1" stop-color="#B8402C"/></linearGradient><linearGradient id="l" x1="1259.163" x2="1263.429" y1="669.661" y2="813.023" gradientUnits="userSpaceOnUse"><stop offset="0" stop-color="#DC6737"/><stop offset="1" stop-color="#E98447"/></linearGradient><linearGradient id="m" x1="1391.915" x2="1255.8" y1="924.986" y2="811.774" gradientUnits="userSpaceOnUse"><stop offset="0" stop-color="#DD793E"/><stop offset="1" stop-color="#B8402C"/></linearGradient><linearGradient id="n" x1="1548.16" x2="1607.893" y1="750.745" y2="724.932" gradientUnits="userSpaceOnUse"><stop offset="0" stop-color="#DC6737"/><stop offset="1" stop-color="#DD793E"/></linearGradient><linearGradient id="o" x1="1505.938" x2="1507.218" y1="852.831" y2="749.368" gradientUnits="userSpaceOnUse"><stop offset="0" stop-color="#DD793E"/><stop offset="1" stop-color="#B8402C"/></linearGradient><linearGradient id="p" x1="-16.131" x2="-22.531" y1="885.633" y2="815.872" gradientUnits="userSpaceOnUse"><stop offset="0" stop-color="#DC6737"/><stop offset="1" stop-color="#DD793E"/></linearGradient><linearGradient id="q" x1="425.459" x2="321.994" y1="915.872" y2="829.898" gradientUnits="userSpaceOnUse"><stop offset="0" stop-color="#DD793E"/><stop offset="1" stop-color="#B8402C"/></linearGradient><linearGradient id="r" x1="1349.006" x2="1343.792" y1="702.075" y2="645.711" gradientUnits="userSpaceOnUse"><stop offset="0" stop-color="#DC6737"/><stop offset="1" stop-color="#DD793E"/></linearGradient><linearGradient id="s" x1="1233.877" x2="1231.957" y1="590.01" y2="846.649" gradientUnits="userSpaceOnUse"><stop offset="0" stop-color="#DD793E"/><stop offset="1" stop-color="#B8402C"/></linearGradient><linearGradient id="t" x1="1556.005" x2="1579.898" y1="697.93" y2="864.33" gradientUnits="userSpaceOnUse"><stop offset="0" stop-color="#DD793E"/><stop offset="1" stop-color="#B8402C"/></linearGradient><linearGradient id="u" x1="884.47" x2="884.47" y1="865.12" y2="884.331" gradientUnits="userSpaceOnUse"><stop offset="0" stop-color="#DC6737"/><stop offset="1" stop-color="#DD793E"/></linearGradient><linearGradient id="v" x1="1742.701" x2="1742.701" y1="852.236" y2="860.695" gradientUnits="userSpaceOnUse"><stop offset="0" stop-color="#DC6737"/><stop offset="1" stop-color="#DD793E"/></linearGradient><linearGradient id="w" x1="1372.145" x2="1372.145" y1="828.961" y2="838.348" gradientUnits="userSpaceOnUse"><stop offset="0" stop-color="#DC6737"/><stop offset="1" stop-color="#DD793E"/></linearGradient><linearGradient id="x" x1="1922.539" x2="1922.539" y1="863.84" y2="890.36" gradientUnits="userSpaceOnUse"><stop offset="0" stop-color="#DC6737"/><stop offset="1" stop-color="#DD793E"/></linearGradient><linearGradient id="y" x1="125.119" x2="125.119" y1="863.84" y2="890.36" gradientUnits="userSpaceOnUse"><stop offset="0" stop-color="#DC6737"/><stop offset="1" stop-color="#DD793E"/></linearGradient><linearGradient id="z" x1="965.544" x2="965.544" y1="892.182" y2="1017.151" gradientUnits="userSpaceOnUse"><stop offset="0" stop-color="#DD793E"/><stop offset="1" stop-color="#B8402C"/></linearGradient><linearGradient id="A" x1="1092.853" x2="1092.853" y1="892.19" y2="1017.133" gradientUnits="userSpaceOnUse"><stop offset="0" stop-color="#DD793E"/><stop offset="1" stop-color="#B8402C"/></linearGradient><linearGradient id="B" x1="1104.548" x2="1104.548" y1="896.381" y2="1007.708" gradientUnits="userSpaceOnUse"><stop offset="0" stop-color="#DD793E"/><stop offset="1" stop-color="#B8402C"/></linearGradient><linearGradient id="C" x1="1263.489" x2="1263.489" y1="892.189" y2="1017.142" gradientUnits="userSpaceOnUse"><stop offset="0" stop-color="#DD793E"/><stop offset="1" stop-color="#B8402C"/></linearGradient><linearGradient id="D" x1="1210.755" x2="1210.755" y1="892.189" y2="1017.141" gradientUnits="userSpaceOnUse"><stop offset="0" stop-color="#DD793E"/><stop offset="1" stop-color="#B8402C"/></linearGradient><linearGradient id="E" x1="1200.335" x2="1200.335" y1="905.603" y2="1004.624" gradientUnits="userSpaceOnUse"><stop offset="0" stop-color="#DD793E"/><stop offset="1" stop-color="#B8402C"/></linearGradient><linearGradient id="F" x1="1432.447" x2="1432.447" y1="892.188" y2="1017.143" gradientUnits="userSpaceOnUse"><stop offset="0" stop-color="#DD793E"/><stop offset="1" stop-color="#B8402C"/></linearGradient><linearGradient id="G" x1="1397.518" x2="1397.518" y1="892.179" y2="1017.151" gradientUnits="userSpaceOnUse"><stop offset="0" stop-color="#DD793E"/><stop offset="1" stop-color="#B8402C"/></linearGradient><linearGradient id="H" x1="1674.295" x2="1674.295" y1="892.189" y2="1017.142" gradientUnits="userSpaceOnUse"><stop offset="0" stop-color="#DD793E"/><stop offset="1" stop-color="#B8402C"/></linearGradient><linearGradient id="I" x1="1699.089" x2="1699.089" y1="902.506" y2="1007.579" gradientUnits="userSpaceOnUse"><stop offset="0" stop-color="#DD793E"/><stop offset="1" stop-color="#B8402C"/></linearGradient><linearGradient id="J" x1="1840.9" x2="1840.9" y1="892.189" y2="1017.144" gradientUnits="userSpaceOnUse"><stop offset="0" stop-color="#DD793E"/><stop offset="1" stop-color="#B8402C"/></linearGradient><linearGradient id="K" x1="1870.576" x2="1863.966" y1="914.981" y2="994.736" gradientUnits="userSpaceOnUse"><stop offset="0" stop-color="#DD793E"/><stop offset="1" stop-color="#B8402C"/></linearGradient><linearGradient id="L" x1="542.225" x2="570.384" y1="851.802" y2="1146.203" gradientUnits="userSpaceOnUse"><stop offset="0" stop-color="#EFA471"/><stop offset="1" stop-color="#DD793E"/></linearGradient><linearGradient id="M" x1="901.939" x2="930.088" y1="817.449" y2="1111.739" gradientUnits="userSpaceOnUse"><stop offset="0" stop-color="#EFA471"/><stop offset="1" stop-color="#DD793E"/></linearGradient><linearGradient id="N" x1="1348.752" x2="1376.9" y1="774.704" y2="1068.991" gradientUnits="userSpaceOnUse"><stop offset="0" stop-color="#EFA471"/><stop offset="1" stop-color="#DD793E"/></linearGradient><linearGradient id="O" x1="248.22" x2="276.38" y1="879.924" y2="1174.324" gradientUnits="userSpaceOnUse"><stop offset="0" stop-color="#EFA471"/><stop offset="1" stop-color="#DD793E"/></linearGradient><linearGradient id="P" x1="270.518" x2="298.671" y1="877.797" y2="1172.127" gradientUnits="userSpaceOnUse"><stop offset="0" stop-color="#EFA471"/><stop offset="1" stop-color="#DD793E"/></linearGradient><linearGradient id="Q" x1="69.347" x2="97.498" y1="897.054" y2="1191.365" gradientUnits="userSpaceOnUse"><stop offset="0" stop-color="#EFA471"/><stop offset="1" stop-color="#DD793E"/></linearGradient><linearGradient id="R" x1="596.248" x2="595.744" y1="928.816" y2="849.657" gradientUnits="userSpaceOnUse"><stop offset="0" stop-color="#DD793E"/><stop offset="1" stop-color="#B8402C"/></linearGradient><linearGradient id="S" x1="637.444" x2="636.804" y1="942.511" y2="842.031" gradientUnits="userSpaceOnUse"><stop offset="0" stop-color="#DD793E"/><stop offset="1" stop-color="#B8402C"/></linearGradient><linearGradient id="T" x1="840.092" x2="954.811" y1="828.05" y2="845.97" gradientUnits="userSpaceOnUse"><stop offset="0" stop-color="#DC6737"/><stop offset="1" stop-color="#DD793E"/></linearGradient><linearGradient id="U" x1="776.305" x2="879.66" y1="838.915" y2="855.06" gradientUnits="userSpaceOnUse"><stop offset="0" stop-color="#DC6737"/><stop offset="1" stop-color="#DD793E"/></linearGradient><linearGradient id="V" x1="741.258" x2="740.619" y1="936.98" y2="836.516" gradientUnits="userSpaceOnUse"><stop offset="0" stop-color="#DD793E"/><stop offset="1" stop-color="#B8402C"/></linearGradient><linearGradient id="W" x1="792.798" x2="792.158" y1="936.665" y2="836.185" gradientUnits="userSpaceOnUse"><stop offset="0" stop-color="#DD793E"/><stop offset="1" stop-color="#B8402C"/></linearGradient><linearGradient id="X" x1="797.686" x2="797.047" y1="936.609" y2="836.157" gradientUnits="userSpaceOnUse"><stop offset="0" stop-color="#DD793E"/><stop offset="1" stop-color="#B8402C"/></linearGradient><linearGradient id="Y" x1="838.181" x2="837.541" y1="936.376" y2="835.896" gradientUnits="userSpaceOnUse"><stop offset="0" stop-color="#DD793E"/><stop offset="1" stop-color="#B8402C"/></linearGradient><linearGradient id="Z" x1="1537.735" x2="1646.534" y1="834.665" y2="911.252" gradientUnits="userSpaceOnUse"><stop offset="0" stop-color="#DC6737"/><stop offset="1" stop-color="#DD793E"/></linearGradient><linearGradient id="aa" x1="1507.31" x2="1509.23" y1="921.343" y2="885.822" gradientUnits="userSpaceOnUse"><stop offset="0" stop-color="#DD793E"/><stop offset="1" stop-color="#B8402C"/></linearGradient><linearGradient id="ab" x1="1537.035" x2="1539.115" y1="909.429" y2="885.349" gradientUnits="userSpaceOnUse"><stop offset="0" stop-color="#DD793E"/><stop offset="1" stop-color="#B8402C"/></linearGradient><linearGradient id="ac" x1="197.413" x2="287.012" y1="922.049" y2="961.729" gradientUnits="userSpaceOnUse"><stop offset="0" stop-color="#DC6737"/><stop offset="1" stop-color="#DD793E"/></linearGradient><linearGradient id="ad" x1="194.224" x2="192.509" y1="934.774" y2="972.484" gradientUnits="userSpaceOnUse"><stop offset="0" stop-color="#DD793E"/><stop offset="1" stop-color="#B8402C"/></linearGradient><linearGradient id="ae" x1="168.851" x2="171.091" y1="990.08" y2="960.64" gradientUnits="userSpaceOnUse"><stop offset="0" stop-color="#DD793E"/><stop offset="1" stop-color="#B8402C"/></linearGradient><linearGradient id="af" x1="140.32" x2="138.933" y1="978.246" y2="996.593" gradientUnits="userSpaceOnUse"><stop offset="0" stop-color="#DD793E"/><stop offset="1" stop-color="#B8402C"/></linearGradient><linearGradient id="ag" x1="743.344" x2="858.063" y1="970.29" y2="988.21" gradientUnits="userSpaceOnUse"><stop offset="0" stop-color="#DC6737"/><stop offset="1" stop-color="#DD793E"/></linearGradient><linearGradient id="ah" x1="696.05" x2="695.41" y1="1078.905" y2="978.425" gradientUnits="userSpaceOnUse"><stop offset="0" stop-color="#DD793E"/><stop offset="1" stop-color="#B8402C"/></linearGradient><linearGradient id="ai" x1="1336.246" x2="1445.045" y1="927.039" y2="1003.626" gradientUnits="userSpaceOnUse"><stop offset="0" stop-color="#DC6737"/><stop offset="1" stop-color="#DD793E"/></linearGradient><linearGradient id="aj" x1="1305.821" x2="1307.741" y1="1013.717" y2="978.196" gradientUnits="userSpaceOnUse"><stop offset="0" stop-color="#DD793E"/><stop offset="1" stop-color="#B8402C"/></linearGradient></defs><path fill="url(#a)" d="M.02 736.078H1920v343.845H.02z" transform="translate(0 -660)"/><path fill="url(#b)" d="M1688.942 704.161c-11.52-1.92-15.574-7.466-32.853-7.466-17.28 0-16.853-.426-34.133-.64-17.279-.214-29.013-5.548-29.013-5.548l-12.799-2.667s-24.961 3.521-26.241 3.521c-1.28 0-10.879-.64-12.159-.64-1.28 0-25.174 8.32-26.24 8.96-1.066.64-3.628 10.454 23.466 11.734 27.093 1.28 156.158 0 156.158 0l-6.186-7.254z" transform="translate(0 -660)"/><path fill="url(#c)" d="M1886.453 727.195l-84.42-5.61c-2.295-.793-5.404-1.599-9.412-2.705-9.28-2.56-18.56-4.48-26.24-7.68-7.68-3.2-14.4-3.2-18.24-6.08-3.84-2.88-17.279-3.52-20.48-7.36-3.199-3.84-3.519-5.12-3.519-8s-13.76-2.346-13.76-2.346-15.68 4.266-16.64 4.266c-.96 0-5.76 3.2-9.6 4.48-3.84 1.28-15.04 5.44-20.48 4.16-5.44-1.28-22.4 1.92-28.48 2.56-6.079.64-43.519-.64-49.919-.64-6.4 0-37.44-4.8-38.72-6.4-1.279-1.6-14.399-2.56-17.279-3.2-2.88-.64-14.4-.96-17.28-.96-2.88 0-18.24-11.84-19.52-12.48-1.28-.64-21.76-.64-24.64-.64l-.3-.003L1423.875 660s-3.441 1.094-9.26 2.929c-1.465-.192-2.844-.324-4.07-.369-8.64-.32-16.64 7.36-19.84 7.36-1.048 0-3.757 1.206-7.397 2.803a5913.32 5913.32 0 0 1-25.029 7.71 27.206 27.206 0 0 1-3.093.047c-13.76-.64-9.6 0-13.76 0s-14.08 1.28-17.92 1.28c-3.84 0-8.96-3.84-8.96-3.84l-16.64 9.92s-16 0-19.2-.64c-3.2-.64-17.92 5.76-36.159 7.04-18.24 1.28-20.48 3.2-31.04 4.16-10.56.96-19.2 3.2-21.44 2.24-.925-.397-6.979.899-13.767 2.556h-130.954l-166.445 16.887a15.672 15.672 0 0 0-2.11-1.842c-1.494-1.066-12.16-.853-16.426-1.066-4.267-.212-18.348-.214-20.694-.64-2.347-.426-16.64-2.774-19.84-4.48-3.2-1.706-14.933-2.56-16.64-3.2-1.706-.64-2.56-2.56-2.56-2.56s-3.413-2.774-4.693-2.987c-1.28-.214-10.666-3.84-13.013-5.334-2.346-1.494-16.853-2.773-20.479-3.413-3.627-.64-10.24-.853-10.24-.853l-.214-2.347s-26.453-7.04-31.786-9.6c-5.334-2.56-5.547-3.84-7.467-4.907-1.92-1.068-14.08-1.92-17.92-2.133-3.84-.212-4.053 2.133-8.746 4.907-4.694 2.773-6.614 4.266-8.96 4.906-2.346.64-9.814 3.2-15.574 3.627-3.376.251-5.582 2.407-8.032 4.493l-50.679 10.542s-58.569-19.199-69.957-17.599a6.118 6.118 0 0 1-.133.021c-.828-.303-1.637-.598-2.397-.872-7.68-2.773-10.24.428-10.24.428l-5.239 4.777a1771.188 1771.188 0 0 0-14.569 4.007c-3.42.272-6.964.607-10.272 1.028-11.732 1.493-13.44 3.84-14.932 3.84-.794 0-8.987 3.491-16.849 6.827-7.722 2.065-13.742 3.558-16.477 3.942-11.388 1.6-84.598 4.8-89.479 4.8-.414 0-2.163-.059-4.966-.165l-21.775-5.589s-29.652-2.133-30.506-2.133c-.854 0-18.56 1.707-25.174.427-6.612-1.28-16.427-7.68-20.693-7.04-4.266.64-15.146.64-15.146.64s-19.626-.854-20.266-.854c-.64 0-6.826-4.052-7.894-3.626-1.066.426-8.106.854-8.106.854l-9.388-1.494s-5.119-.427-19.412.426c-14.292.854-30.292 1.494-30.292 1.494l-4.055 2.56s-15.145 2.774-18.345 3.414c-3.2.64-31.147-.001-33.279.852-2.135.854-14.72 3.414-20.268 5.974-5.547 2.56-11.946 4.053-12.372 4.906-.428.854-.428 1.068-4.267 4.054-3.206 2.492-7.006 2.764-10.656 4.892-7.564.997-12.534 1.605-13.402 1.605-1.625 0-10.676-1.245-22.003-2.904v46.907c48.836 1.122 427.915-12.27 427.915-12.27l-38.231 15.433 333.391 2.432s278.325-9.6 288.088-14.4c9.759-4.799 252.17 0 252.17 0l151.3-2.134-67.579 13.563 217.256-13.563 100.865 8.534s91.107 6.4 112.256 6.4c13.326 0 88.62.452 142.529-3.936l-.01-46.947-33.516 4.488z" transform="translate(0 -660)"/><path fill="url(#d)" d="M749.752 694.72c3.095-.124 2.454-1.012 2.454-1.012l-.214-2.347s-11.785 1.218-12.64 1.279c-2.24.16-22.72.48-28.96 3.2-6.239 2.72-19.039 7.84-19.039 7.84s-1.92 2.88 5.6.8 7.359 8.48 24.959 4.8c17.6-3.68 18.24-9.44 21.44-9.44 3.2 0 2.4-4.96 6.4-5.12z" transform="translate(0 -660)"/><path fill="url(#e)" d="M803.191 707.855c-1.706-.64-2.56-2.56-2.56-2.56s-.752-.612-1.681-1.28c-2.458.636-5.108 1.203-7.278 1.385-5.76.48-21.92 1.12-28.8 3.04-3.089.863-7.077 1.852-10.683 2.726-1.129 2.423-1.829 5.049-1.218 7.545a32.376 32.376 0 0 1 6.301.609c9.12 1.76 25.12 3.04 25.12 3.04s-7.2-4.96-6.24-5.6c.96-.64 12-4 14.72-4.32 2.719-.32 5.759-.48 8.959-1.76 1.495-.599 3.102-1.512 5.118-2.461-.827-.13-1.456-.25-1.758-.364z" transform="translate(0 -660)"/><path fill="url(#f)" d="M468.475 760.32c.96-.48 5.76-2.56 15.2-5.44 9.44-2.88 14.72-5.44 25.76-8.16 11.039-2.72 21.599-3.84 27.999-6.08 6.4-2.24 15.2-7.84 18.08-8.48 2.88-.64-.96-3.04 1.44-4s9.6-3.84 12.48-4.64c2.88-.8 7.52-1.92 12.16-2.08 4.64-.16 13.28-5.12 16.64-5.92 3.36-.8 11.68-3.36 9.44-4.64-2.24-1.28-7.68-4.32-7.68-4.32l4.64-2.56s-.501-.37-1.114-.947l-.692.143s-22.442-7.356-42.244-12.581c1.605 1.912 3.392 4.154 5.81 6.985 6.56 7.68-.32 12.96-2.56 15.2-2.24 2.24-13.92 6.72-17.76 9.12-3.84 2.4-25.28 7.68-25.28 8.16 0 .48-5.759 5.76-6.559 7.2-.8 1.44-4 3.36-5.6 4.32-1.6.96-16.32 4-21.76 7.04-5.44 3.04-14.08 7.84-16.16 8.8-2.08.96-3.2 3.36-2.24 2.88z" transform="translate(0 -660)"/><path fill="url(#g)" d="M268.957 709.76c6.72.96-2.24 6.72-5.28 8.8-3.04 2.08-13.6 7.04-13.44 9.12.153 1.975 7.653 11.73 10.464 15.311a28.42 28.42 0 0 1 3.392-1.796 335.265 335.265 0 0 0 21.322-10.314c-.083-.668.051-1.36.502-2.081 2.4-3.84 2.72-7.52 5.6-10.72 2.88-3.2 5.44-6.08 4.64-6.24-.68-.136-9.203-1.551-11.845-4.625-5.286.256-11.203.349-14.449-.28-3.709-.718-8.427-3.048-12.606-4.841a16.834 16.834 0 0 1-.62 1.746c-1.76 4.16-27.999 11.36-35.359 16.32-7.36 4.96-.48-.32 8.32-1.28 8.799-.96 19.359-2.56 26.239-4.8 6.88-2.24 6.4-5.28 13.12-4.32z" transform="translate(0 -660)"/><path fill="url(#h)" d="M1436.572 680.481c-.853 1.707-5.546 4.907-6.826 6.187-1.28 1.28-24.32 8.746-24.32 8.746s15.359-3.2 17.493-3.84c2.133-.64 14.721-5.545 19.627-6.613 4.906-1.067 5.76-2.347 12.8-2.773 7.04-.427 10.452-.854 11.946-1.92.48-.344 1.202-.95 1.98-1.707l-1.448-.001-.3-.003-43.132-18.337a11.04 11.04 0 0 0 1.514 1.915c3.626 3.626 13.654 11.52 14.934 15.146 1.28 3.627-3.414 1.494-4.268 3.2z" transform="translate(0 -660)"/><path fill="url(#i)" d="M878.901 720.083a15.672 15.672 0 0 0-2.11-1.842c-.372-.265-1.307-.45-2.569-.583-1.512 1.205-2.957 2.392-4.044 3.357-3.84 3.412-16.212 8.532-20.692 11.306-4.48 2.774.212 1.919 4.266 1.707 4.054-.213 4.054-1.919 16.426.427 12.374 2.346 43.52 7.04 64.64 8.96 21.119 1.92 36.48 1.28 36.48 1.28s-1.92-1.495-16.853-3.627c-14.934-2.133-29.014-3.201-36.694-4.267-7.679-1.066-23.467-3.413-24.319-4.48-.854-1.066-16.535-2.669-16.535-5.655s2.004-6.583 2.004-6.583z" transform="translate(0 -660)"/><path fill="url(#j)" d="M1842.38 735.04c-14.719-2.88-22.719-4.32-24.799-5.44-2.08-1.12-23.388-10.286-24.96-10.72-9.28-2.56-18.56-4.48-26.24-7.68-7.68-3.2-14.4-3.2-18.24-6.08-3.84-2.88-17.279-3.52-20.479-7.36-3.2-3.84-3.52-5.12-3.52-8 0-.426-.4-.831-1.069-1.212-.749.502-1.531 1.01-2.291 1.532-2.56 1.76-5.6 3.84-7.04 6.4-1.44 2.56-6.24 10.24-6.24 11.04 0 .8 1.12 4.96 4.32 6.72 3.2 1.76 4.64 4.48 10.88 7.36 6.24 2.88 4.96 3.84 12.16 4.32 7.2.48 16.639-1.28 18.719-.96 2.08.32-4.16 1.76-4.96 2.4-.8.64 7.36 1.44 11.84 1.6 4.48.16 4.8-1.12 11.36-.96 3.3.081 4.494-.123 5.395-.16.167-.136.319-.28.501-.404 3.832-2.64 7.718-2.587 11.639-1.658 2.798-.142 6.016-.106 8.385.782 3.493 1.309 3.023 4.832 4 5.12 4.477 1.32 11.338 1.197 15.224 3.596.875.54 1.749 1.057 2.609 1.582 1.52.106 2.799.194 3.607.262 3.84.32 17.759 1.76 21.119.64 3.36-1.12 12.8.16-1.92-2.72z" transform="translate(0 -660)"/><path fill="url(#k)" d="M1493.958 696.8c6.826-.746 5.76 1.281 13.226-2.666a86.495 86.495 0 0 1 5.007-2.453l-.207-.001c-2.88 0-18.24-11.84-19.52-12.48-.123-.061-.424-.116-.865-.166-.255.453-.415.903-.415 1.34 0 2.24-.959 6.827-3.306 11.84-2.348 5.012-.746 5.332 6.08 4.586z" transform="translate(0 -660)"/><path fill="url(#l)" d="M1258.867 745.76s-1.705-7.677-4.267-7.893c-2.561-.215-3.415-4.267-6.401-4.267-2.986 0-8.747-1.068-11.52-.214-2.772.854-13.652 2.134-13.652 2.134s-7.68-2.132-8.96-1.92c-1.28.212-29.227 4.48-29.227 4.48l-10.666 3.2-1.707 3.412s-7.679 2.133-11.093 3.2c-3.414 1.068-24.32 3.2-24.96 3.84-.64.64-5.546 2.988-2.56 3.414 2.986.426 3.626.854 12.8.214 9.174-.64 9.814-1.281 21.334-1.068 11.519.214 20.907.853 23.679 1.28 2.773.428 12.8-1.492 12.8-1.492l-18.134 4.906s6.828.854 9.814.64c2.986-.214 7.254-1.919 11.52-1.706 4.266.212 9.814-1.92 12.8.426 2.986 2.346 8.319 4.266 8.532 5.12.214.854.214 5.546.214 5.546s4.693-4.907 6.186-5.12c1.494-.212 4.053-2.132 10.24-2.772 6.188-.64 10.88-1.921 11.734-2.348.854-.426 1.494-13.012 1.494-13.012z" transform="translate(0 -660)"/><path fill="url(#m)" d="M1251.827 735.761s.429 6.373-.639 9.147c-1.068 2.773-10.452 7.681-12.16 13.653-1.707 5.973-6.827 17.707-7.253 18.987-.427 1.28-1.067 10.026-1.067 10.026s1.705-3.84 16.853-3.2c15.147.64 25.386 0 33.919.214 8.534.213 27.306-2.988 37.12-2.134 9.813.854.64-4.693.64-4.693l-21.12-1.92s27.947-1.921 29.653-1.707c1.707.214 34.774-1.92 34.774-1.92l-19.2-3.2s-10.454 2.346-16.853-.64c-6.4-2.986-19.199-5.759-20.906-5.973-1.708-.213-18.135-2.773-19.628-3.413-1.492-.64-10.24-6.187-11.52-6.4-1.28-.214-5.758-6.187-6.612-7.04-.854-.854-16.001-9.787-16.001-9.787z" transform="translate(0 -660)"/><path fill="url(#n)" d="M1656.196 747.575c3.092-2.348 6.932-5.868 5.652-5.868-1.28 0-20.799-1.492-22.399-1.386-1.6.106-49.705 2.028-54.292 3.414-4.588 1.386-16.96 1.387-17.814 2.24-.853.852-12.801 4.8-12.693 5.546.107.746 12.799 4.694 18.239 5.334 5.44.64 37.653-1.175 9.6 2.452-28.052 3.628-28.584 3.84-29.012 4.16-.427.32-1.707 3.414-1.707 3.414s16.959 1.814 20.159 1.28c3.2-.534 22.295-3.518 30.508-4.266 8.212-.748 16.852.108 25.172-2.88s25.281-9.173 25.707-9.6c.426-.428 2.88-3.84 2.88-3.84z" transform="translate(0 -660)"/><path fill="url(#o)" d="M1562.225 767.094c13.439-1.068 17.707-5.334 31.573-5.334s12.587-1.066 25.6-3.84c13.012-2.774 16.852-8.106 23.466-9.6 6.613-1.494 19.2-6.4 19.2-6.4s7.681 7.68 11.093 8.96c3.413 1.28 28.799 17.28 48.852 19.84 20.054 2.56 30.934 2.561 36.053 4.694 5.12 2.132 6.187 6.4 6.187 6.4s-7.68-.854-10.24-1.494c-2.56-.64-15.572-2.56-20.266-2.56-4.694 0-52.693-4.694-53.333-4.694-.64 0-13.867-.425-2.56 2.348 11.306 2.772 10.667 2.345 11.733 2.772 1.067.428-22.186-1.28-28.799-3.2-6.614-1.92-13.653-7.68-16-8.32-2.348-.64-23.681-.214-26.028 1.28-2.346 1.494-25.598.64-27.732.854-2.133.214-9.6-1.066-11.733-.64-2.134.426-10.239 2.348-11.946 2.774-1.708.426-57.812-1.708-5.12-4.268v.428z" transform="translate(0 -660)"/><path fill="url(#p)" d="M202.878 762.08s13.76.96 13.12 2.56c-.64 1.6 34.559 4.16 34.559 4.16l.32 4.48s11.84 1.28 14.08 1.28 37.12 5.12 38.72 5.76c1.6.64 28.479 8.96 29.439 9.28.96.32 39.36 2.24 39.36 2.24s8.96 2.56 24 3.2c15.04.64 20.48.96 31.679 2.56 11.2 1.6 20.48 3.2 24 6.08 3.52 2.88 45.76 6.4-13.12 4.48-58.879-1.92-104.639-4.8-117.118-4.48-12.48.32-44.8-.64-25.6 1.28 19.2 1.92 49.279 4.48 46.079 5.76-3.2 1.28-50.879 4.16-107.199 3.2-56.319-.96-83.519-3.2-94.078-3.2-10.56 0-26.24-1.6-28.48-2.56-2.24-.96 46.079-7.04 46.079-7.04s-33.919-2.24-63.039-3.2c-29.12-.96-45.44-.64-49.919-3.84-4.48-3.2-68.16-4.8-12.8-9.6 21.686-1.88 26.559-2.56 35.519-1.92 8.96.64 31.04-5.76 39.36-8.32 8.32-2.56 26.24-6.72 34.559-6.72 8.32 0 27.52-4.8 32.32-4.8 4.8 0 28.16-.64 28.16-.64z" transform="translate(0 -660)"/><path fill="url(#q)" d="M306.769 813.92s13.974-2.881 22.507-4.054c8.533-1.172 14.827-1.385 19.84-2.132 5.013-.748 12.159-3.308 16.533-4.908 4.373-1.6 4.373-4.694 4.16-6.08-.213-1.386 1.92-3.52 2.24-3.52.319 0 2.027-.106 2.027-.106s5.332 1.812 19.84 3.306c14.506 1.494 19.733.959 31.146 2.346 11.413 1.388 18.347 5.228 31.039 6.294 12.694 1.066 1.174 1.494.854 1.494-.32 0-26.453-1.388-27.947-1.494-1.493-.106-2.133.213-2.666.426-.534.214-9.066.854-9.066.854s-.96 2.986-6.4 2.346c-5.44-.64-17.92-2.772-20.054-2.986-2.132-.214-9.812-1.174-9.812-1.174s-6.294 2.56-7.468 2.88c-1.172.32-7.573.64-13.546 1.6-5.974.96-4.586 3.2-1.814 3.734 2.774.534 8.534 1.6 3.094 1.92-5.44.32-23.041.96-32.427.64-9.386-.32-13.012-.746-13.972-.426-.96.32-8.108-.96-8.108-.96z" transform="translate(0 -660)"/><path fill="url(#r)" d="M1395.689 672.027c3.936-1.781 31.285 5.546 30.54 6.621-.745 1.077-2.484 5.132-3.724 5.712-1.243.578-6.788 1.739-18.209 2.151-11.421.414-33.189 4.387-39.726 4.057-6.538-.332-14.317-2.814-9.683-4.222 4.635-1.408 15.475-1.076 21.436-1.49 5.959-.413-1.241-.413-6.621-2.898-5.38-2.481 14.648-4.801 25.987-9.931z" transform="translate(0 -660)"/><path fill="url(#s)" d="M1052.575 705.654c-1.92 2.347-.641 2.347 17.706 4.694 18.347 2.346 58.027 11.093 91.733 12.373 33.706 1.28 35.839-1.492 34.559 1.28-1.28 2.773 6.827 2.988 20.266 3.84 13.44.853-6.187-1.281-14.719-5.547-8.533-4.266-6.4-7.465-31.786-9.173-25.386-1.707-5.548-4.48-36.054-5.76-30.506-1.28-81.705-1.707-81.705-1.707z" transform="translate(0 -660)"/><path fill="url(#t)" d="M1337.426 730.88c15.915.421 18.879-2.24 31.999-5.12 13.12-2.88 10.08-5.92 36.64-10.56 26.56-4.64 58.239-9.12 61.759-7.52 3.52 1.6 2.4 6.24-5.6 11.36-8 5.12-16.32 6.24-4 6.72 12.32.48 16-.8 27.36-.8s14.4 8.48 32 8.16c17.599-.32 28.319.96 34.879 2.4 6.56 1.44-19.199 3.04-35.519 2.24-16.32-.8-62.88-5.6-64.64-4.96-1.76.64-27.839 1.12-27.839 1.12s26.399 3.04 36.639 3.68c10.24.64 34.08 6.4 52 7.84 17.92 1.44-27.84-.16-64.8-3.04-36.959-2.88-64.159-3.04-65.759-2.72-1.6.32 41.12-4.48-1.28-4.48-42.399 0-54.399 1.6-69.279 1.12-14.88-.48-35.04-7.04 25.44-5.44z" transform="translate(0 -660)"/><path fill="url(#u)" d="M531.194 863.52c32.64 1.92 24-2.24 49.6-2.56 25.6-.32 18.56-1.6 38.079-3.2 19.52-1.6 29.76-13.12 44.16-11.2 14.4 1.92 36.16 2.88 54.719 9.6 18.56 6.72 20.16 4.8 58.88 8 38.719 3.2 24.639.32 64.959 4.8 40.32 4.48 27.84 7.36-12.8 4.16-40.639-3.2-76.799-5.76-95.999-6.08-19.2-.32-38.399-6.72-42.879-6.4-4.48.32-.32-9.92-22.08-4.48-21.76 5.44-40.96 7.36-6.08 9.28 34.88 1.92 130.559 14.4 52.799 10.56-77.759-3.84-114.558-5.12-133.438-2.56-18.88 2.56-43.52 2.88-61.76 8-18.239 5.12 12.16-6.08-28.159-12.16-40.32-6.08-48.32-21.44-79.999-15.36-31.68 6.08-5.44-14.72 16.959-10.24 22.4 4.48 26.56-.64 46.4 1.92s10.88-5.44 39.04 1.6c28.159 7.04-9.6 14.72 17.599 16.32z" transform="translate(0 -660)"/><path fill="url(#v)" d="M1064.309 870.56s44.799-11.52 47.359-11.52c2.56 0 43.52-7.04 97.919-1.92 54.399 5.12 96.639-6.4 123.519-5.76 26.879.64 31.359-5.76 51.199-2.56 19.84 3.2 69.119-12.16 113.279.64s62.079 16.64 96.639 16.64c34.56 0 69.119-5.12 99.199-2.56s46.719 10.24 46.719 10.24-26.879-1.92-81.919-.64c-55.039 1.28-115.198-9.6-139.518-5.76-24.32 3.84-42.88-15.36-67.199-10.88-24.32 4.48-81.92 0-115.839 8.32-33.92 8.32 10.88 9.6 49.279 11.52 38.4 1.92 83.839 14.08 126.719 18.56 42.879 4.48-33.92.64-71.679-2.56-37.76-3.2-93.439-15.36-135.039-14.08-41.6 1.28-104.319 4.48-104.319 4.48s42.24-17.28-10.24-11.52c-52.479 5.76-46.079-8.96-93.439 0-47.359 8.96-144.638 21.76-32.639-.64z" transform="translate(0 -660)"/><path fill="url(#w)" d="M984.63 829.6c38.795-14.107 39.359 6.08 74.559.96 35.199-5.12 31.039-5.44 62.399-3.52 31.36 1.92 30.08-11.2 58.559-7.36 28.48 3.84 46.08-.64 72 6.08 25.919 6.72 38.719 8.96 62.399 9.28 23.68.32 46.079.64 50.559 2.56 4.48 1.92-40.959 2.88-51.519 2.56-10.56-.32-78.719-5.76-87.679-6.08-8.96-.32-40.64-7.04-54.4-2.88-13.759 4.16 3.52-3.52-27.199 3.52-30.72 7.04-70.719 3.52-16.96 8.64 53.759 5.12-11.2 3.52-46.72 3.84-35.519.32-53.439-1.92-70.719-3.2-17.28-1.28-48.639-1.28-47.679 0 .96 1.28-3.2-11.52-42.24-8.64-39.039 2.88-87.999-3.2-51.199-3.84 36.799-.64 77.439-8.96 93.759-8.32 16.32.64 8 11.52 22.08 6.4z" transform="translate(0 -660)"/><path fill="url(#x)" d="M1919.979 848.652c-10.532-1.01-20.822-1.456-28.159-.812-18.24 1.6-11.2 11.84-25.6 10.24-14.4-1.6-37.439-7.36-41.919-8-4.48-.64-19.2 1.92-27.2 3.2-8 1.28-16.32 4.48-31.68 4.16-15.36-.32-16.32 4.8-25.28 4.16-8.959-.64-11.839 2.24-46.719 1.92-31.68-5.12-19.84 6.4-49.28 4.48-29.439-1.92 3.52 8 16.32 8s39.36.96 68.16-.96c28.799-1.92 29.759 3.2 98.878 5.76 69.12 2.56 15.04-2.88-17.599-5.76-32.64-2.88-16-7.36 5.76-6.4 21.759.96 23.999.64 55.359-2.24 28.763-2.642 35.457 2.249 48.959-.379v-17.369z" transform="translate(0 -660)"/><path fill="url(#y)" d="M65.919 856.16c-31.999-6.08-13.12 2.88-26.239-.96-7.843-2.295-24.03-5.046-39.68-6.548v17.369a51.79 51.79 0 0 0 3.84-.901c16.32-4.48 23.04 5.12 43.84 4.8 20.799-.32-4.16-2.24 3.199-3.52 7.36-1.28 25.92-2.56 48.32-2.56s23.36-2.24 23.36-2.24-24.64.64-56.64-5.44z" transform="translate(0 -660)"/><path fill="url(#z)" d="M934.769 944.115c6.12-.363 28.216 3.538 9.574 7.071-18.643 3.538-29.393-5.892-9.574-7.071z" transform="translate(0 -660)"/><path fill="url(#A)" d="M1066.444 914.574c12.972-3.538 23.85 4.452 14.108 6.81-9.738 2.359-33.59-1.499-14.108-6.81z" transform="translate(0 -660)"/><path fill="url(#B)" d="M1084.043 931.15c8.268-1.473 17.945 3.772 8.585 6.13-9.358 2.359-23.699-3.437-8.585-6.13z" transform="translate(0 -660)"/><path fill="url(#C)" d="M1213.567 956.406c21.818-1.869 47.362 1.686 26.2 8.421-21.161 6.733-53.742-6.062-26.2-8.421z" transform="translate(0 -660)"/><path fill="url(#D)" d="M1184.01 944.283c16.138-4.708 24.184 6.4 14.107 8.082-10.077 1.683-32.582-2.693-14.107-8.082z" transform="translate(0 -660)"/><path fill="url(#E)" d="M1171.244 959.775c8.276-4.788 26.53 2.136 12.423 5.505-14.109 3.366-21.158-.453-12.423-5.505z" transform="translate(0 -660)"/><path fill="url(#F)" d="M1384.542 938.221c13.112-5.258 45.345.385 22.168 4.907-23.177 4.525-37.285 1.155-22.168-4.907z" transform="translate(0 -660)"/><path fill="url(#G)" d="M1378.27 952.73c4.566-.804 16.687.76 5.937 5.753-10.751 4.996-23.289-2.694-5.937-5.753z" transform="translate(0 -660)"/><path fill="url(#H)" d="M1597.164 971.899c35.699-4.177 74.571 6.735 50.386 8.08-24.184 1.347-110.846-1.009-50.386-8.08z" transform="translate(0 -660)"/><path fill="url(#I)" d="M1669.385 959.437c5.107-1.674 27.145-.62 20.091 2.749-7.056 3.368-37.561 2.975-20.091-2.749z" transform="translate(0 -660)"/><path fill="url(#J)" d="M1792.993 924.415c21.751-1.874 45.348 1.683 27.208 7.072-18.139 5.389-58.447-4.378-27.208-7.072z" transform="translate(0 -660)"/><path fill="url(#K)" d="M1837.69 940.266c12.107-1.316 27.998 2.704 12.546 6.156-15.454 3.448-40.777-3.086-12.546-6.156z" transform="translate(0 -660)"/><path fill="url(#L)" d="M528.421 961.334l3.413-2.24s1.174-.748 4.587-.64c3.413.107 10.027.747 10.879.747.854 0 2.027 2.454 2.454 2.56.426.106-6.4 2.133-6.4 2.133l-14.933-2.56z" transform="translate(0 -660)"/><path fill="url(#M)" d="M913.27 963.68c0 .883-2.579 1.6-5.76 1.6-3.18 0-5.76-.717-5.76-1.6 0-.883 2.58-1.6 5.76-1.6 3.181 0 5.76.717 5.76 1.6z" transform="translate(0 -660)"/><path fill="url(#N)" d="M1358.385 903.2c0 .883-1.718 1.6-3.839 1.6s-3.84-.717-3.84-1.6c0-.883 1.719-1.6 3.84-1.6 2.121 0 3.839.717 3.839 1.6z" transform="translate(0 -660)"/><path fill="url(#O)" d="M246.611 891.041c0 1.06-2.388 1.92-5.334 1.92-2.945 0-5.333-.86-5.333-1.92s2.388-1.92 5.333-1.92c2.946 0 5.334.86 5.334 1.92z" transform="translate(0 -660)"/><path fill="url(#P)" d="M270.077 901.494c0 1.414-2.674 2.56-5.974 2.56-3.298 0-5.972-1.146-5.972-2.56 0-1.413 2.674-2.56 5.972-2.56 3.3 0 5.974 1.147 5.974 2.56z" transform="translate(0 -660)"/><path fill="url(#Q)" d="M72.959 962.828c0 1.118-2.197 2.026-4.906 2.026-2.71 0-4.906-.908-4.906-2.026 0-1.119 2.196-2.027 4.906-2.027 2.709 0 4.906.908 4.906 2.027z" transform="translate(0 -660)"/><path fill="url(#R)" d="M601.697 852.264l6.723-5.547 7.732-1.008 13.614 4.201 5.379 7.228-1.513 3.53s-17.143 1.681-21.178 1.681c-4.034 0-13.446-2.858-13.446-2.858l-.672-4.875 3.361-2.352z" transform="translate(0 -660)"/><path fill="url(#S)" d="M641.113 863.36s1.92-3.52 2.72-3.84c.8-.32 5.6-1.44 6.08-1.44.48 0 11.2 4.48 11.2 4.48l2.4 2.88h-24l1.6-2.08z" transform="translate(0 -660)"/><path fill="url(#T)" d="M803.511 837.28c16.96 4.8 12 7.52 31.2 9.6s16.32-.32 17.44 0c1.12.32 33.92 2.08 34.56 2.08.64 0 29.119.8 32.639.8 3.52 0 18.24 0 21.12-.96 2.88-.96 7.68-1.28 3.84-1.28s-23.68-.64-26.24-1.12c-2.56-.48-20.8-3.04-22.72-3.68-1.92-.64-13.119-4.16-22.879-3.52-9.76.64-27.36-1.76-28-1.6-.64.16-4-1.12-6.4-1.12-2.4 0-15.84-1.44-15.84-1.44l-18.72 2.24z" transform="translate(0 -660)"/><path fill="url(#U)" d="M755.992 846.72c-12.8-1.28-18.24 3.04-6.08 4.96 12.16 1.92 40.32 9.92 41.6 10.24 1.28.32 56.159 3.2 60.479 3.2s21.76-2.08 17.92-2.08-21.12-5.12-26.88-6.72c-5.76-1.6-19.04-4.64-20.8-5.44-1.76-.8-11.52-4-12.96-4-1.44 0-12.96 1.44-16.799 1.44-3.84 0-9.92-2.24-17.12-2.72-7.2-.48-9.44-.64-9.44-.64l-9.92 1.76z" transform="translate(0 -660)"/><path fill="url(#V)" d="M743.246 847.092l7.466-5.812s13.92-.32 14.4-.32c.48 0 12.8 1.76 12.8 1.76l5.92 3.52.32 2.72h-29.6l-11.306-1.868z" transform="translate(0 -660)"/><path fill="url(#W)" d="M794.712 835.2l6.559-9.44 20.16-1.76 12.32 8.48 4.96 3.2.48 2.4h-37.28l-7.199-2.88z" transform="translate(0 -660)"/><path fill="url(#X)" d="M799.672 846.321l2.879-2.722 4.56-.239 2.88 2.08 1.36 2.321h-10.48l-1.199-1.44z" transform="translate(0 -660)"/><path fill="url(#Y)" d="M840.151 843.68l3.759-2.24 7.121.561L853.03 844l-12.879-.32z" transform="translate(0 -660)"/><path fill="url(#Z)" d="M1532.784 892.214c-6.614-.214-17.493 1.278-18.026 1.492-.534.214-.96 2.24 1.066 2.454 2.026.214 27.307 3.946 25.493 4.586-1.813.64-9.492 1.6 12.16 3.094 21.652 1.494 41.065 5.44 41.492 5.44.428 0 15.04-.852 17.494-1.066 2.454-.214 9.28-1.28 9.28-1.28s9.812-3.095 9.386-3.308c-.426-.212-4.908-.64-15.36-1.92-10.452-1.28-24.107-3.625-28.8-4.052-4.692-.428-9.492-1.495-12.052-2.348-2.56-.852-7.04-3.412-12.694-3.092-5.653.32-25.279-.96-25.279-.96l-4.16.96z" transform="translate(0 -660)"/><path fill="url(#aa)" d="M1511.345 894.134l2.24 1.067s15.893.319 16.532.213c.64-.106 8.96 1.28 8.96 1.28l16.32-2.346-4.266-5.654s-7.359-6.72-7.786-6.72c-.428 0-10.134.107-10.134.107l-16.853 4.053-5.013 8z" transform="translate(0 -660)"/><path fill="url(#ab)" d="M1540.303 901.332l3.921-8.32s4.399-1.2 4.64-1.2c.239 0 8.239.641 8.239.641l11.36 7.36-2.4 1.599-11.919.88-13.841-.96z" transform="translate(0 -660)"/><path fill="url(#ac)" d="M144.638 971.68c-.96 1.6-2.88 2.88-2.079 3.68.799.8 11.519 4.8 15.839 5.6 4.32.8 19.84 3.52 29.28 4.8 9.44 1.28 35.04 5.6 42.88 5.76 7.839.16 27.039.48 28.799.16 1.76-.32 32.8-4.64 34.88-4.64 2.08 0 30.24-5.92 30.24-5.92s-9.28-1.12-12-.8c-2.72.32-25.6 0-28 0-2.4 0-17.28-1.76-17.76-2.24-.48-.48-18.4-4.32-21.76-4.48-3.36-.16-27.839-2.72-28.799-2.72-.96 0-45.92-3.52-46.4-3.52-.48 0-25.12 4.32-25.12 4.32z" transform="translate(0 -660)"/><path fill="url(#ad)" d="M141.166 975.128c1.545.041 3.08.092 4.6.177 10.623.595 21.235 1.16 31.874 1.364 7.077.137 4.923-.233 12.118-.029l-5.92-9.44-15.467-6.934-14.08-1.174-18.132 9.388-1.625 2.483a144.174 144.174 0 0 1 6.632 4.165z" transform="translate(0 -660)"/><path fill="url(#ae)" d="M172.158 980.347l2.16-3.441 6-2.639 10.481-3.04 8.798.879 11.441 4.8 1.92 3.84v1.6h-28.399l-12.401-1.999z" transform="translate(0 -660)"/><path fill="url(#af)" d="M118.131 987.628l5.228-1.814s2.24-1.066 2.666-1.066c.426 0 8.32.64 8.32.64l2.666 2.664-10.666.002-8.214-.426z" transform="translate(0 -660)"/><g><path fill="url(#ag)" d="M706.763 979.52c16.96 4.8 12 7.52 31.2 9.6s16.32-.32 17.44 0c1.12.32 33.92 2.08 34.56 2.08.64 0 29.119.8 32.639.8 3.52 0 18.24 0 21.12-.96 2.88-.96 7.68-1.28 3.84-1.28s-23.68-.64-26.24-1.12c-2.56-.48-20.8-3.04-22.72-3.68-1.92-.64-13.119-4.16-22.879-3.52-9.76.64-27.36-1.76-28-1.6-.64.16-4-1.12-6.4-1.12-2.4 0-15.84-1.44-15.84-1.44l-18.72 2.24z" transform="translate(0 -660)"/><path fill="url(#ah)" d="M697.964 977.44l6.559-9.44 20.16-1.76 12.32 8.48 4.96 3.2.48 2.4h-37.28l-7.199-2.88z" transform="translate(0 -660)"/><path fill="url(#ai)" d="M1331.295 984.588c-6.614-.214-17.493 1.279-18.026 1.492-.534.214-.96 2.24 1.066 2.454 2.026.214 27.307 3.946 25.493 4.586-1.813.64-9.492 1.6 12.16 3.094 21.652 1.494 41.065 5.44 41.492 5.44.428 0 15.04-.852 17.494-1.066 2.453-.214 9.28-1.28 9.28-1.28s9.812-3.095 9.386-3.308c-.426-.212-4.908-.64-15.36-1.92-10.452-1.28-24.107-3.625-28.8-4.052-4.692-.428-9.492-1.495-12.052-2.348-2.56-.852-7.04-3.412-12.694-3.092-5.653.32-25.279-.96-25.279-.96l-4.16.96z" transform="translate(0 -660)"/><path fill="url(#aj)" d="M1309.856 986.508l2.24 1.067s15.893.319 16.532.213c.64-.106 8.96 1.28 8.96 1.28l16.32-2.346-4.266-5.654s-7.359-6.72-7.786-6.72c-.428 0-10.134.107-10.134.107l-16.853 4.053-5.013 8z" transform="translate(0 -660)"/></g></svg>