<svg xmlns="http://www.w3.org/2000/svg" width="4367.535" height="1155.006" viewBox="0 0 4367.535 1155.006"><path fill="#0167B0" d="M1154.337 577.832c0 318.761-258.407 577.168-577.169 577.168C258.407 1155 0 896.593 0 577.832 0 259.07 258.407.663 577.168.663c318.762 0 577.169 258.407 577.169 577.169z"/><path fill="#004D92" d="M1147.673 666.015a581.126 581.126 0 0 1-30.304 115.431c-9.54 25.372-17.692 21.901-40.512 34.507-16.55 9.143-32.587 20.603-46.413 33.505-25.77 24.045-46.851 53.557-69.382 80.545-24.567 29.427-54.576 48.917-89.804 63.614-66 27.534-136.898 28.8-203.919 51.605-33.422 11.373-65.185 28.758-89.786 54.464-12.631 13.2-24.494 41.419-36.169 54.266 0 0-.862.244-17.837-1.36-11.027-1.043-22.022-2.361-32.973-4.034 23.365-69.138 77.647-109.886 140.314-140.36 63.878-31.064 136.298-35.857 199.887-67.582 33.143-16.534 64.65-31.9 93.525-55.576 26.102-21.403 43.172-50.857 62.217-78.352 35.892-51.817 92.462-112.982 152.819-136.455l8.337-4.218zm-6.409-211.418c-80.539 14.804-140.376 96.769-183.879 159.755-49.221 71.266-105.309 143.005-176.562 193.594-72.856 51.729-162.197 74.581-240.971 115.522-75.402 39.19-159.281 102.745-193.803 183.338 29.115 14.017 66.005 24.138 66.005 24.138 6.374-2.728 21.553-45.892 26.317-53.379 19.446-30.559 44.945-57.219 74.417-78.255 70.935-50.628 160.706-60.21 238.8-93.864 41.879-18.047 82.008-35.597 116.596-66.224 32.686-28.943 59.326-64.033 84.009-99.787 42.305-61.276 114.106-165.43 202.186-148.574 1.066-45.718-3.331-91.59-13.115-136.264zM948.436 135.818c-49.839-.911-109.588 28.271-148.614 57.404-37.449 27.956-57.031 71.209-82.19 108.307-27.243 40.17-35.77 99.959-72.88 132.26-30.796 26.806-80.882 33.706-120.101 40.534-50.121 8.726-101.42 6.46-139.079 47.105-41.083 44.34-36.462 98.117-53.474 152.089-16.807 53.322-56.619 95.569-95.317 134.211-39.846 39.789-90.516 66.901-145.327 81.828a578.822 578.822 0 0 0 47.631 64.129c11.544 13.493 12.728 13.669 29.034 6.613 12.957-5.608 25.924-11.472 38.512-17.87 43.632-22.178 86.009-54.051 119.254-90.148 58.852-63.9 41.218-163.777 67.799-240.094 14.653-42.073 49.143-56.307 89.668-57.912 46.776-1.854 98.45-6.86 142.716-23.72 84.798-32.296 114.875-115.033 159.19-185.641 25.368-40.418 64.713-78.607 104.299-104.762 40.603-26.827 79.834-34.646 126.066-37.783a573.842 573.842 0 0 0-67.187-66.55zM864.64 77.347c-33.285 13.466-73.053 12.93-104.96 32.377-36.421 22.199-60.356 55.934-72.725 95.837-10.761 34.72-24.572 71.147-47.577 101.73-20.195 26.849-60.852 37.002-93.904 46.724-43.016 12.653-90.578 9.221-132.022 28.937-33.258 15.821-68.467 47.603-92.176 76.045-20.734 24.874-21.015 40.439-29.978 69.487-10.933 35.433-20.343 72.479-35.313 104.879-15.212 32.924-40.537 59.472-70.079 82.178-18.969 14.58-38.743 21.809-59.803 32.245-22.691 11.244-42.554 25.084-62.365 41.75-10.322 8.683-14.962 20.638-14.962 20.638 4.037 10.122 18.707 38.752 21.669 43.989 0 0 2.602-2.312 23.033-7.302 11.898-2.907 23.754-6.437 35.193-10.836 39.668-15.252 75.718-48.851 104.269-79.76 26.179-28.341 41.289-57.715 59.263-91.119 19.805-36.807 23.39-76.458 37.445-116.14 11.3-31.905 29.746-62.206 57.444-82.41 39.01-28.457 81.394-23.443 126.589-28.323 43.972-4.747 88.473-17.832 121.72-48.351 37.014-33.978 53.677-85.295 78.59-128.966 46.617-81.716 108.867-141.776 208.246-145.857a575.146 575.146 0 0 0-57.597-37.752zM422.928 21.705c-34.536 9.602-68.186 22.474-100.339 38.317-45.801 62.121-84.948 133.833-146.49 180.825-28.86 22.037-58.129 43.547-87.235 65.391-14.132 10.606-29.484 21.219-38.531 36.325-11.472 19.155-18.437 45.303-24.902 66.438 48.078-82.889 136.683-118.555 206.372-178.339 35.536-30.486 68.223-68.686 94.85-107.34 26.103-37.891 57.167-77.369 96.275-101.617zm677.129 311.585a579.263 579.263 0 0 1 9.864 22.22c-102.682 9.697-160.415 97.589-214.936 173.604-52.343 72.979-119.016 137.45-202.326 173.495-48.371 20.928-81.356 46.782-111.944 90.525-20.959 29.971-46.918 60.443-74.319 88.336-35.496 36.134-77.022 69.669-118.653 98.369-37.47 25.831-82.808 53.278-95.114 100.271-16.721-9.461-15.65-9.19-15.65-9.19 5.137-9.068 20.85-36.063 27.436-44.133 15.974-19.572 35.5-35.133 56.804-48.532 39.26-24.693 74.128-58.393 106.695-91.398 35.206-35.682 65.537-76.013 97.048-115.046 13.144-16.283 26.905-32.763 41.867-47.376 17.892-17.474 39.885-25.016 62.126-35.661 90.106-43.129 156.021-108.649 216.375-187.822 52.382-68.714 117.951-166.39 214.727-167.662z"/><path fill="#3C8CC4" d="M1153.516 611.504c-.315 5.323-2.289 27.472-2.289 27.472-1.746 2.206-26.332 7.962-29.687 9.388-16.201 6.884-31.252 16.421-45.206 27.086-28.929 22.111-50.55 49.362-72.633 77.551-49.134 62.72-87.705 131.783-164.362 165.028-80.313 34.829-170.248 42.15-248.539 83.835-31.678 16.867-67.381 39.581-90.516 67.541-9.642 11.653-18.379 24.396-26.174 37.805-4.535 7.799-12.622 27.714-17.636 35.035 0 0-1.548.035-19.505-4.469 42.616-123.6 182.613-175.058 297.633-207.573 57.421-16.233 114.643-35.031 157.898-76.457 24.43-23.396 49.079-47.916 69.078-75.242 18.711-25.568 34.081-53.488 54.857-77.546 35.472-41.036 78.749-87.812 137.081-89.454zm-125.307-387.721c-109.102.619-193.521 93.004-240.569 182.908-23.247 46.176-44.777 87.627-88.829 118.736-45.834 32.367-97.497 39.414-151.32 48.501-44.484 7.51-87.896 10.244-114.278 53.69-22.06 36.328-25.346 79.282-31.373 120.96-16.839 116.437-109.7 203.801-207.525 261.374 5.663 5.023 30.378 25.126 30.378 25.126 7.77.276 26.09-16.046 32.616-20.754 21.15-15.258 40.477-32.835 58.886-51.269 37.413-37.466 64.788-73.001 89.894-120.239 13.065-24.583 17.667-51.904 22.821-78.632 7.921-41.086 5.334-93.742 36.006-125.446 21.556-22.281 47.579-21.82 75.277-28.42 34.181-8.146 69.781-12.355 103.704-20.165 44.211-10.18 90.317-33.701 115.445-72.721 20.784-32.278 35.989-66.327 58.243-96.651 56.582-77.1 144.365-149.316 246.521-152.839a580.653 580.653 0 0 0-30.886-43.955l-5.011-.204zM808.655 49.169C703.544 70.161 695.747 169.843 630.208 234.688c-34.291 33.928-76.517 58.17-122.612 72.074-50.664 15.283-100.916 22.875-145.584 53.654-42.521 29.299-74.701 54.019-94.025 104.054-14.28 36.974-22.188 76.79-39.84 112.275-21.38 42.977-55.209 77.578-93.126 106.358-19.232 14.597-39.526 27.731-60.087 40.362-11.038 6.781-48.39 27.797-48.39 27.797s.792 3.912 8.703 25.449c26.676-15.521 54.246-29.543 81.129-44.643 22.866-12.844 35.984-28.387 53.961-47.396 23.883-25.252 50.806-47.276 66.757-77.656 19.572-37.278 29.094-74.358 39.144-114.252 11.926-47.34 54.603-78.587 91.279-106.504 84.602-64.398 213.829-29.875 279.56-126.088 29.243-42.805 34.755-91.955 70.981-130.277 16.359-17.305 32.6-35.366 54.168-46.372C794.71 72.05 818.673 71.097 841.9 64.969a578.078 578.078 0 0 0-33.245-15.8zM578.549.724a575.279 575.279 0 0 0-79.557 5.286C435.14 27.925 387.26 83.185 346.374 134.519c-40.753 51.167-81.962 101.794-138.377 137.153-50.147 31.431-93.987 58.201-134.881 103.446-20.829 23.046-40.684 48.853-54.576 76.787C1.386 486.4.739 530.878.113 569.033c40.78-54.822 67.559-117.948 108.274-172.485 20.884-27.973 46.143-55.578 76.134-73.974 27.409-16.812 58.802-28.942 86.634-44.471 57.415-32.039 101.74-83.907 145.971-131.987 22.443-24.396 41.003-53.017 65.12-75.596 28.883-27.04 61.757-50.585 96.303-69.796z"/><path fill="#004677" d="M653.555 5.712c287.369 36.583 498.963 284.668 500.782 572.12 0 318.761-258.407 577.168-577.169 577.168-92.709.436-184.063-22.883-266.387-65.049 25.307 3.533 50.853 4.887 76.387 5.049 318.762 0 577.169-258.407 577.169-577.168.65-212.041-121.682-415.266-310.782-512.12z" opacity=".59"/></svg>