<svg xmlns="http://www.w3.org/2000/svg" width="61.146" height="61.137" viewBox="0 0 61.146 61.137"><path fill="#3A425A" d="M31.342.053c2.026.364 3.302 1.536 4.055 3.406.998 3.251 5.091 4.528 7.89 2.459 3.971-2.931 9.484.907 7.802 5.438-1.182 3.193 1.345 6.532 4.878 6.437 5.014-.136 7.119 6.08 2.982 8.798-2.914 1.912-2.914 6.039 0 7.955 4.137 2.717 2.032 8.93-2.982 8.797-3.533-.095-6.063 3.244-4.878 6.437 1.682 4.531-3.828 8.369-7.802 5.438-2.802-2.065-6.892-.792-7.89 2.459-1.417 4.613-8.23 4.613-9.647 0-.999-3.251-5.092-4.528-7.89-2.459-3.971 2.931-9.484-.907-7.803-5.438 1.182-3.193-1.345-6.532-4.877-6.437-5.014.136-7.12-6.08-2.983-8.797 2.915-1.913 2.915-6.04 0-7.955-4.133-2.718-2.031-8.93 2.983-8.798 3.532.095 6.063-3.244 4.877-6.437-1.681-4.531 3.828-8.372 7.803-5.438 2.802 2.066 6.891.792 7.89-2.459C26.829.642 28.539.053 31.342.053z"/></svg>