<svg xmlns="http://www.w3.org/2000/svg" viewBox="0 0 1920 1080"><path d="M1474.854 813c-138.347 0-250.5-112.153-250.5-250.5 0-138.348 112.153-250.5 250.5-250.5 138.348 0 250.5 112.152 250.5 250.5 0 138.347-112.152 250.5-250.5 250.5z" fill="#FDC151"/><path d="M1724.85 561.698a258.415 258.415 0 0 1-.91 21.508 258.025 258.025 0 0 1-.957 9.184 158.722 158.722 0 0 0-23.46 10.092c-86.25 42.088-165.49 100.159-264.608 96.545-50.854-3.482-97.208-23.286-148.062-26.767-12.417-1.206-25.427-1.52-38.289.355a253.118 253.118 0 0 1-14.021-36.005c6.12-.435 12.226-.484 18.252-.085 60.872 5.365 114.629 33.358 176.627 34.642 102.834 2.881 176.528-63.744 267.957-99.135 9.478-3.725 18.524-7.358 27.471-10.334zm-88.961-190.809c-42.39 20.794-83.416 48.753-127.848 62.878-12.636 4.421-27.494 7.35-40.862 8.056-67.069 2.928-150.877-22.214-212.699 4.044-13.817 25.809-23.373 54.412-27.63 84.933 74.794-22.858 158.167 12.719 236.715 10.141 47.898-1.724 88.42-21.29 128.21-44.571 30.732-19.112 63.885-44.862 97.982-63.29-14.304-23.58-32.82-44.476-53.868-62.191z" fill="#FEE89A"/><path d="M1654.544 388.03c46.02 45.969 69.995 110.028 70.81 174.469 0 138.348-112.152 250.501-250.5 250.501-91.761.181-177.047-51.688-220.689-132.031 47.688 49.118 111.514 75.168 179.689 76.03 138.348.001 250.5-112.152 250.5-250.5-.061-41.205-10.123-82.227-29.81-118.469z" fill="#F3811F" opacity=".5"/><path d="M1907.247 299.063c4.326.261 8.27.053 11.079 3.862 9.223 16.544-76.964 83.804-210.402 167.735-.091-.299-2.885-7.214-4.258-10.218 77.871-50.488 121.366-86.537 115.032-97.899-10.628-19.063-154.178 36.634-355.598 148.924-80.232 45.353-160.316 91.449-236.197 143.893-27.365 18.914-56.732 38.378-79.114 63.31-3.02 3.92-5.51 7.828-4.035 12.908 5.612 6.923 21.219 2.884 28.412 1.318 13.741-2.992 27.179-7.419 40.416-12.118 17.832-6.386 35.476-13.321 52.843-20.884 6.107 9.041 3.31 5.163 8.234 11.747-39.9 19.567-80.638 37.343-121.653 54.424-22.505 9.066-45.331 17.844-68.794 24.135-7.97 2.137-32.761 9.573-39.085.996-3.484-10.441 13.6-25.299 20.037-31.464 13.358-12.793 27.887-24.376 42.558-35.613l2.726-2.39.004-.004c72.32-55.156 199.743-135.92 348.772-219.004 105.608-58.068 212.204-115.015 323.073-162.528 34.528-14.797 88.231-38.978 125.95-41.13z" fill="#F4981D"/><path d="M1265.289 699.693c6.243 9.242 3.398 5.299 8.368 11.946-7.859 3.788-15.556 7.439-23.396 11.269l-36.937-2.344c17.587-6.415 34.976-12.991 51.965-20.871z" fill="#C25E1C"/></svg>